<svg width="31" height="31" viewBox="0 0 31 31" fill="none" xmlns="http://www.w3.org/2000/svg">
<path d="M6 5H24V23H6V5Z" fill="#D9D9D9"/>
<path d="M15.4999 0.083252C7.00534 0.083252 0.083252 7.00534 0.083252 15.4999C0.083252 23.9945 7.00534 30.9166 15.4999 30.9166C23.9945 30.9166 30.9166 23.9945 30.9166 15.4999C30.9166 7.00534 23.9945 0.083252 15.4999 0.083252ZM22.8691 11.9541L14.1278 20.6953C13.912 20.9112 13.6191 21.0345 13.3108 21.0345C13.0024 21.0345 12.7095 20.9112 12.4937 20.6953L8.13075 16.3324C7.68367 15.8853 7.68367 15.1453 8.13075 14.6983C8.57783 14.2512 9.31783 14.2512 9.76492 14.6983L13.3108 18.2441L21.2349 10.3199C21.682 9.87284 22.422 9.87284 22.8691 10.3199C23.3162 10.767 23.3162 11.4916 22.8691 11.9541Z" fill="#4BC27E"/>
</svg>
