<svg width="37" height="36" viewBox="0 0 37 36" fill="none" xmlns="http://www.w3.org/2000/svg">
<circle cx="18.5687" cy="17.5833" r="17.5833" fill="#00849A"/>
<path d="M22.6917 10.2468H14.2032C11.6567 10.2468 9.95898 11.5201 9.95898 14.4911V20.433C9.95898 23.404 11.6567 24.6773 14.2032 24.6773H22.6917C25.2383 24.6773 26.936 23.404 26.936 20.433V14.4911C26.936 11.5201 25.2383 10.2468 22.6917 10.2468ZM23.0907 15.4163L20.4338 17.5385C19.8736 17.9883 19.1605 18.209 18.4475 18.209C17.7345 18.209 17.0129 17.9883 16.4612 17.5385L13.8043 15.4163C13.5326 15.1956 13.4902 14.7882 13.7024 14.5165C13.9231 14.2449 14.3221 14.194 14.5937 14.4147L17.2506 16.5368C17.8957 17.0546 18.9908 17.0546 19.6359 16.5368L22.2928 14.4147C22.5644 14.194 22.9719 14.2364 23.1841 14.5165C23.4048 14.7882 23.3623 15.1956 23.0907 15.4163Z" fill="white"/>
</svg>
