<svg width="36" height="36" viewBox="0 0 36 36" fill="none" xmlns="http://www.w3.org/2000/svg">
<circle cx="17.5833" cy="17.5833" r="17.5833" fill="#00849A"/>
<path d="M23.3538 17.0887C22.8551 16.9575 22.2688 16.8875 21.5688 16.8875C20.5976 16.8875 20.2388 17.1237 19.7401 17.5C19.7138 17.5175 19.6876 17.5437 19.6613 17.57L18.8301 18.4537C18.1301 19.1887 16.8701 19.1975 16.1701 18.445L15.3388 17.57C15.3126 17.5437 15.2863 17.5175 15.2601 17.5C14.7613 17.1237 14.4026 16.8875 13.4313 16.8875C12.7313 16.8875 12.1451 16.9575 11.6463 17.0887C9.56384 17.6487 9.56384 19.3025 9.56384 20.755V21.5687C9.56384 23.765 9.56384 26.25 14.2451 26.25H20.7551C23.8613 26.25 25.4363 24.675 25.4363 21.5687V20.755C25.4363 19.3025 25.4363 17.6487 23.3538 17.0887ZM19.5388 23.1H15.4613C15.1288 23.1 14.8576 22.8287 14.8576 22.4875C14.8576 22.1462 15.1288 21.875 15.4613 21.875H19.5388C19.8713 21.875 20.1426 22.1462 20.1426 22.4875C20.1426 22.8287 19.8713 23.1 19.5388 23.1Z" fill="white"/>
<path d="M18.0862 9.33625C18.0862 9.0125 17.8237 8.75 17.4999 8.75C17.1762 8.75 16.9137 9.0125 16.9137 9.33625V10.5H18.0949V9.33625H18.0862Z" fill="white"/>
<path d="M23.8088 14.3675V15.855C23.7738 15.8375 23.73 15.8288 23.695 15.82H23.6863C23.065 15.6537 22.3738 15.575 21.5688 15.575C20.2213 15.575 19.5825 15.9688 19.005 16.4062C18.8825 16.4938 18.795 16.5813 18.7075 16.6688L17.8763 17.5525C17.7888 17.64 17.6488 17.6925 17.5 17.6925C17.43 17.6925 17.255 17.6838 17.1238 17.5438L16.2663 16.6425C16.1788 16.5463 16.0738 16.4675 16.0475 16.45C15.4175 15.9688 14.7788 15.575 13.4313 15.575C12.6263 15.575 11.935 15.6537 11.305 15.82C11.27 15.8288 11.2263 15.8375 11.1913 15.855V14.3675C11.1913 12.5563 11.1913 10.5 15.0588 10.5H16.9138V13.5187L16.345 12.95C16.1088 12.7138 15.7413 12.7138 15.505 12.95C15.2775 13.1775 15.2775 13.5538 15.505 13.7812L17.08 15.3563C17.0888 15.365 17.0975 15.365 17.0975 15.3737C17.15 15.4175 17.2113 15.4612 17.2725 15.4875C17.3513 15.5137 17.4213 15.5312 17.5 15.5312C17.5788 15.5312 17.6488 15.5137 17.7275 15.4875C17.7975 15.4612 17.8588 15.4175 17.92 15.3563L19.495 13.7812C19.7225 13.5538 19.7225 13.1775 19.495 12.95C19.2588 12.7138 18.8913 12.7138 18.655 12.95L18.0863 13.5187V10.5H19.9413C23.8088 10.5 23.8088 12.5563 23.8088 14.3675Z" fill="white"/>
</svg>
